name analog
datacolumns 19
datarows 23
range 0.0 0.011
endheader
time	ground_force_vx	ground_force_vy	ground_force_vz	ground_force_px	ground_force_py	ground_force_pz	l_ground_force_vx	l_ground_force_vy	l_ground_force_vz	l_ground_force_px	l_ground_force_py	l_ground_force_pz	ground_torque_x	ground_torque_y	ground_torque_z	l_ground_torque_x	l_ground_torque_y	l_ground_torque_z
0.0	-0.0	-0.0	-0.0	7.672593116760254	60.07437896728516	-336.5805053710937	-8.160170555114746	-59.97286224365234	-282.1120910644531	-0.0	-0.0	-0.0	-0.0	-0.0	-0.0	42929.125	12941.0712890625	-5449.96435546875
0.0005	-0.0	-0.0	-0.0	7.138863563537598	60.42960357666016	-336.9368591308594	-7.632814884185791	-60.23486709594727	-281.06915283203125	-0.0	-0.0	-0.0	-0.0	-0.0	-0.0	42483.88671875	13204.83984375	-5389.91943359375
0.001	-0.0	-0.0	-0.0	7.760239601135254	60.42898178100586	-336.9322509765625	-7.807510852813721	-60.32275772094727	-280.71978759765625	-0.0	-0.0	-0.0	-0.0	-0.0	-0.0	43012.42578125	13076.4189453125	-5361.3662109375
0.0015	-0.0	-0.0	-0.0	7.582619667053223	59.45189666748047	-338.34527587890625	-7.892879009246826	-60.235389709472656	-281.7684936523437	-0.0	-0.0	-0.0	-0.0	-0.0	-0.0	43206.28515625	13305.859375	-5449.16748046875
0.002	-0.0	-0.0	-0.0	7.493895053863525	60.42956161499024	-335.5242919921875	-7.542768478393555	-59.97042846679688	-282.1118469238281	-0.0	-0.0	-0.0	-0.0	-0.0	-0.0	42534.63671875	13208.9228515625	-5449.3408203125
0.0025	-0.0	-0.0	-0.0	7.137836933135986	59.9850959777832	-337.6354064941406	-7.805679798126221	-59.79465103149414	-281.4139099121094	-0.0	-0.0	-0.0	-0.0	-0.0	-0.0	42852.7578125	13193.6064453125	-5389.83349609375
0.003	-0.0	-0.0	-0.0	7.404879570007324	60.07389068603516	-335.8744812011719	-7.452939987182617	-60.059566497802734	-281.4145812988281	-0.0	-0.0	-0.0	-0.0	-0.0	-0.0	42998.98046875	13155.3193359375	-5389.88427734375
0.0035	-0.0	-0.0	-0.0	7.315515041351318	60.519474029541016	-334.8158569335937	-8.072521209716797	-59.88226318359375	-281.0677185058594	-0.0	-0.0	-0.0	-0.0	-0.0	-0.0	42857.1171875	13062.693359375	-5419.75244140625
0.004	-0.0	-0.0	-0.0	7.672128677368164	59.71744155883789	-336.9334716796875	-7.451905727386475	-60.14677429199219	-279.6708679199219	-0.0	-0.0	-0.0	-0.0	-0.0	-0.0	43002.87109375	13096.76171875	-5448.962890625
0.0045000000000000005	-0.0	-0.0	-0.0	7.938642024993896	60.162696838378906	-334.4640197753906	-7.629174709320068	-60.32366943359375	-281.4159545898437	-0.0	-0.0	-0.0	-0.0	-0.0	-0.0	42750.0234375	13087.3818359375	-5597.5615234375
0.005	-0.0	-0.0	-0.0	7.226673126220703	59.62793350219727	-335.1708679199219	-7.4517059326171875	-59.70561218261719	-280.369140625	-0.0	-0.0	-0.0	-0.0	-0.0	-0.0	42583.04296875	13155.04296875	-5330.3583984375
0.0055	-0.0	-0.0	-0.0	7.404712200164795	59.62824249267578	-335.1687316894531	-7.717494964599609	-59.79367065429688	-280.01959228515625	-0.0	-0.0	-0.0	-0.0	-0.0	-0.0	43049.41796875	12965.89453125	-5419.6845703125
0.006	-0.0	-0.0	-0.0	7.405073642730713	59.626739501953125	-335.8741455078125	-7.894909858703613	-59.6164436340332	-280.02166748046875	-0.0	-0.0	-0.0	-0.0	-0.0	-0.0	42643.98828125	13014.181640625	-5449.5107421875
0.006500000000000001	-0.0	-0.0	-0.0	7.404125690460205	59.717716217041016	-334.1137084960937	-7.805887222290039	-59.88188171386719	-278.9747619628906	-0.0	-0.0	-0.0	-0.0	-0.0	-0.0	42658.28515625	13076.8662109375	-5389.8046875
0.007	-0.0	-0.0	-0.0	6.96143913269043	59.89519882202149	-334.11846923828125	-8.337289810180664	-59.88149642944336	-280.3675842285156	-0.0	-0.0	-0.0	-0.0	-0.0	-0.0	42593.42578125	12931.435546875	-5479.0166015625
0.0075	-0.0	-0.0	-0.0	7.047630310058594	60.16155242919922	-336.9180908203125	-7.71747350692749	-60.05656814575195	-279.6661682128906	-0.0	-0.0	-0.0	-0.0	-0.0	-0.0	42536.99609375	13197.7021484375	-5360.27001953125
0.008	-0.0	-0.0	-0.0	7.046553134918213	59.80865478515625	-334.1167297363281	-7.896493434906006	-59.44213485717773	-280.0212097167969	-0.0	-0.0	-0.0	-0.0	-0.0	-0.0	42634.21875	12955.921875	-5507.8740234375
0.0085	-0.0	-0.0	-0.0	6.77875280380249	60.34004211425781	-335.1579284667969	-8.072186470031738	-59.7039794921875	-279.3232421875	-0.0	-0.0	-0.0	-0.0	-0.0	-0.0	42516.90625	13177.0947265625	-5390.2626953125
0.009000000000000001	-0.0	-0.0	-0.0	6.778633117675781	60.1623420715332	-335.16778564453125	-7.89692497253418	-59.88099670410156	-279.31036376953125	-0.0	-0.0	-0.0	-0.0	-0.0	-0.0	42789.60546875	12724.8486328125	-5537.96630859375
0.0095	-0.0	-0.0	-0.0	6.336248874664307	59.80727005004883	-334.1142883300781	-7.894620895385742	-59.26576232910156	-278.9646301269531	-0.0	-0.0	-0.0	-0.0	-0.0	-0.0	42492.16015625	13015.60546875	-5420.37841796875
0.01	-0.0	-0.0	-0.0	6.067128658294678	60.24889755249024	-335.524169921875	-8.162077903747559	-59.53086471557617	-279.67047119140625	-0.0	-0.0	-0.0	-0.0	-0.0	-0.0	42834.890625	12999.3193359375	-5448.75732421875
0.0105	-0.0	-0.0	-0.0	6.154665946960449	60.16302490234375	-335.50732421875	-8.6914644241333	-59.87919235229492	-280.0167236328125	-0.0	-0.0	-0.0	-0.0	-0.0	-0.0	42788.79296875	12971.0927734375	-5537.68017578125
0.011	-0.0	-0.0	-0.0	5.9818220138549805	59.98287963867188	-337.2681884765625	-8.428339004516602	-59.70708084106445	-279.32769775390625	-0.0	-0.0	-0.0	-0.0	-0.0	-0.0	42583.578125	13042.146484375	-5538.1259765625
